<svg width="361" height="123" viewBox="0 0 361 123" fill="none" xmlns="http://www.w3.org/2000/svg">
<path d="M0 100L361 100" stroke="#E2E7E7"/>
<path opacity="0.5" d="M306.976 115.941C306.976 114.68 307.181 113.697 307.592 112.993C308.003 112.282 308.721 111.926 309.748 111.926C310.767 111.926 311.482 112.282 311.893 112.993C312.304 113.697 312.509 114.68 312.509 115.941C312.509 117.224 312.304 118.222 311.893 118.933C311.482 119.644 310.767 120 309.748 120C308.721 120 308.003 119.644 307.592 118.933C307.181 118.222 306.976 117.224 306.976 115.941ZM311.519 115.941C311.519 115.303 311.475 114.764 311.387 114.324C311.306 113.877 311.134 113.517 310.87 113.246C310.613 112.975 310.239 112.839 309.748 112.839C309.249 112.839 308.868 112.975 308.604 113.246C308.347 113.517 308.175 113.877 308.087 114.324C308.006 114.764 307.966 115.303 307.966 115.941C307.966 116.601 308.006 117.155 308.087 117.602C308.175 118.049 308.347 118.409 308.604 118.68C308.868 118.951 309.249 119.087 309.748 119.087C310.239 119.087 310.613 118.951 310.87 118.68C311.134 118.409 311.306 118.049 311.387 117.602C311.475 117.155 311.519 116.601 311.519 115.941ZM319.278 112.828L316.22 120H315.208L318.31 112.927H314.064V112.069H319.278V112.828Z" fill="#737B8B"/>
<path d="M303 60H323V100H303V60Z" fill="#5A6ACF"/>
<path d="M303 0H323V60H303V0Z" fill="#E6E8EC"/>
<path opacity="0.5" d="M254.987 115.941C254.987 114.68 255.193 113.697 255.603 112.993C256.014 112.282 256.733 111.926 257.759 111.926C258.779 111.926 259.494 112.282 259.904 112.993C260.315 113.697 260.52 114.68 260.52 115.941C260.52 117.224 260.315 118.222 259.904 118.933C259.494 119.644 258.779 120 257.759 120C256.733 120 256.014 119.644 255.603 118.933C255.193 118.222 254.987 117.224 254.987 115.941ZM259.53 115.941C259.53 115.303 259.486 114.764 259.398 114.324C259.318 113.877 259.145 113.517 258.881 113.246C258.625 112.975 258.251 112.839 257.759 112.839C257.261 112.839 256.879 112.975 256.615 113.246C256.359 113.517 256.186 113.877 256.098 114.324C256.018 114.764 255.977 115.303 255.977 115.941C255.977 116.601 256.018 117.155 256.098 117.602C256.186 118.049 256.359 118.409 256.615 118.68C256.879 118.951 257.261 119.087 257.759 119.087C258.251 119.087 258.625 118.951 258.881 118.68C259.145 118.409 259.318 118.049 259.398 117.602C259.486 117.155 259.53 116.601 259.53 115.941ZM266.827 113.939C266.666 113.125 266.164 112.718 265.32 112.718C264.668 112.718 264.18 112.971 263.857 113.477C263.535 113.976 263.377 114.801 263.384 115.952C263.553 115.571 263.832 115.274 264.22 115.061C264.616 114.841 265.056 114.731 265.54 114.731C266.296 114.731 266.897 114.966 267.344 115.435C267.799 115.904 268.026 116.553 268.026 117.382C268.026 117.881 267.927 118.328 267.729 118.724C267.539 119.12 267.245 119.435 266.849 119.67C266.461 119.905 265.988 120.022 265.43 120.022C264.675 120.022 264.085 119.853 263.659 119.516C263.234 119.179 262.937 118.713 262.768 118.119C262.6 117.525 262.515 116.792 262.515 115.919C262.515 113.228 263.454 111.882 265.331 111.882C266.05 111.882 266.615 112.076 267.025 112.465C267.436 112.854 267.678 113.345 267.751 113.939H266.827ZM265.331 115.578C265.016 115.578 264.719 115.644 264.44 115.776C264.162 115.901 263.934 116.095 263.758 116.359C263.59 116.616 263.505 116.931 263.505 117.305C263.505 117.862 263.667 118.317 263.989 118.669C264.312 119.014 264.774 119.186 265.375 119.186C265.889 119.186 266.296 119.028 266.596 118.713C266.904 118.39 267.058 117.958 267.058 117.415C267.058 116.843 266.912 116.396 266.618 116.073C266.325 115.743 265.896 115.578 265.331 115.578Z" fill="#737B8B"/>
<path d="M252 65H272V100H252V65Z" fill="#5A6ACF"/>
<path d="M252 0H272V65H252V0Z" fill="#E6E8EC"/>
<path opacity="0.5" d="M206.025 115.941C206.025 114.68 206.23 113.697 206.641 112.993C207.051 112.282 207.77 111.926 208.797 111.926C209.816 111.926 210.531 112.282 210.942 112.993C211.352 113.697 211.558 114.68 211.558 115.941C211.558 117.224 211.352 118.222 210.942 118.933C210.531 119.644 209.816 120 208.797 120C207.77 120 207.051 119.644 206.641 118.933C206.23 118.222 206.025 117.224 206.025 115.941ZM210.568 115.941C210.568 115.303 210.524 114.764 210.436 114.324C210.355 113.877 210.183 113.517 209.919 113.246C209.662 112.975 209.288 112.839 208.797 112.839C208.298 112.839 207.917 112.975 207.653 113.246C207.396 113.517 207.224 113.877 207.136 114.324C207.055 114.764 207.015 115.303 207.015 115.941C207.015 116.601 207.055 117.155 207.136 117.602C207.224 118.049 207.396 118.409 207.653 118.68C207.917 118.951 208.298 119.087 208.797 119.087C209.288 119.087 209.662 118.951 209.919 118.68C210.183 118.409 210.355 118.049 210.436 117.602C210.524 117.155 210.568 116.601 210.568 115.941ZM218.503 112.916H214.642V115.424C214.811 115.189 215.06 114.999 215.39 114.852C215.72 114.698 216.076 114.621 216.457 114.621C217.066 114.621 217.561 114.749 217.942 115.006C218.323 115.255 218.595 115.582 218.756 115.985C218.925 116.381 219.009 116.803 219.009 117.25C219.009 117.778 218.91 118.251 218.712 118.669C218.514 119.087 218.21 119.417 217.799 119.659C217.396 119.901 216.893 120.022 216.292 120.022C215.522 120.022 214.899 119.824 214.422 119.428C213.945 119.032 213.656 118.504 213.553 117.844H214.532C214.627 118.262 214.829 118.588 215.137 118.823C215.445 119.058 215.834 119.175 216.303 119.175C216.882 119.175 217.319 119.003 217.612 118.658C217.905 118.306 218.052 117.844 218.052 117.272C218.052 116.7 217.905 116.26 217.612 115.952C217.319 115.637 216.886 115.479 216.314 115.479C215.925 115.479 215.584 115.574 215.291 115.765C215.005 115.948 214.796 116.201 214.664 116.524H213.718V112.036H218.503V112.916Z" fill="#737B8B"/>
<path d="M203 50H223V100H203V50Z" fill="#5A6ACF"/>
<path d="M203 0H223V50H203V0Z" fill="#E6E8EC"/>
<path opacity="0.5" d="M156.019 115.941C156.019 114.68 156.225 113.697 156.635 112.993C157.046 112.282 157.765 111.926 158.791 111.926C159.811 111.926 160.526 112.282 160.936 112.993C161.347 113.697 161.552 114.68 161.552 115.941C161.552 117.224 161.347 118.222 160.936 118.933C160.526 119.644 159.811 120 158.791 120C157.765 120 157.046 119.644 156.635 118.933C156.225 118.222 156.019 117.224 156.019 115.941ZM160.562 115.941C160.562 115.303 160.518 114.764 160.43 114.324C160.35 113.877 160.177 113.517 159.913 113.246C159.657 112.975 159.283 112.839 158.791 112.839C158.293 112.839 157.911 112.975 157.647 113.246C157.391 113.517 157.218 113.877 157.13 114.324C157.05 114.764 157.009 115.303 157.009 115.941C157.009 116.601 157.05 117.155 157.13 117.602C157.218 118.049 157.391 118.409 157.647 118.68C157.911 118.951 158.293 119.087 158.791 119.087C159.283 119.087 159.657 118.951 159.913 118.68C160.177 118.409 160.35 118.049 160.43 117.602C160.518 117.155 160.562 116.601 160.562 115.941ZM163.185 118.229V117.47L167.046 112.124H168.245V117.36H169.345V118.229H168.245V120H167.255V118.229H163.185ZM167.299 113.169L164.34 117.36H167.299V113.169Z" fill="#737B8B"/>
<path d="M152 70H172V100H152V70Z" fill="#5A6ACF"/>
<path d="M152 0H172V70H152V0Z" fill="#E6E8EC"/>
<path opacity="0.5" d="M105.74 116.941C105.74 115.68 105.945 114.697 106.356 113.993C106.766 113.282 107.485 112.926 108.512 112.926C109.531 112.926 110.246 113.282 110.657 113.993C111.067 114.697 111.273 115.68 111.273 116.941C111.273 118.224 111.067 119.222 110.657 119.933C110.246 120.644 109.531 121 108.512 121C107.485 121 106.766 120.644 106.356 119.933C105.945 119.222 105.74 118.224 105.74 116.941ZM110.283 116.941C110.283 116.303 110.239 115.764 110.151 115.324C110.07 114.877 109.898 114.517 109.634 114.246C109.377 113.975 109.003 113.839 108.512 113.839C108.013 113.839 107.632 113.975 107.368 114.246C107.111 114.517 106.939 114.877 106.851 115.324C106.77 115.764 106.73 116.303 106.73 116.941C106.73 117.601 106.77 118.155 106.851 118.602C106.939 119.049 107.111 119.409 107.368 119.68C107.632 119.951 108.013 120.087 108.512 120.087C109.003 120.087 109.377 119.951 109.634 119.68C109.898 119.409 110.07 119.049 110.151 118.602C110.239 118.155 110.283 117.601 110.283 116.941ZM113.125 115.049C113.176 114.374 113.437 113.846 113.906 113.465C114.375 113.084 114.984 112.893 115.732 112.893C116.231 112.893 116.66 112.985 117.019 113.168C117.386 113.344 117.661 113.586 117.844 113.894C118.035 114.202 118.13 114.55 118.13 114.939C118.13 115.394 117.998 115.786 117.734 116.116C117.477 116.446 117.14 116.659 116.722 116.754V116.809C117.199 116.926 117.576 117.157 117.855 117.502C118.134 117.847 118.273 118.298 118.273 118.855C118.273 119.273 118.178 119.651 117.987 119.988C117.796 120.318 117.51 120.578 117.129 120.769C116.748 120.96 116.289 121.055 115.754 121.055C114.977 121.055 114.339 120.853 113.84 120.45C113.341 120.039 113.063 119.46 113.004 118.712H113.972C114.023 119.152 114.203 119.511 114.511 119.79C114.819 120.069 115.23 120.208 115.743 120.208C116.256 120.208 116.645 120.076 116.909 119.812C117.18 119.541 117.316 119.192 117.316 118.767C117.316 118.217 117.133 117.821 116.766 117.579C116.399 117.337 115.846 117.216 115.105 117.216H114.852V116.38H115.116C115.791 116.373 116.3 116.263 116.645 116.05C116.99 115.83 117.162 115.493 117.162 115.038C117.162 114.649 117.034 114.338 116.777 114.103C116.528 113.868 116.168 113.751 115.699 113.751C115.244 113.751 114.878 113.868 114.599 114.103C114.32 114.338 114.155 114.653 114.104 115.049H113.125Z" fill="#737B8B"/>
<path d="M102 50H122V100H102V50Z" fill="#5A6ACF"/>
<path d="M102 0H122V50H102V0Z" fill="#E6E8EC"/>
<path opacity="0.5" d="M55.8148 116.941C55.8148 115.68 56.0201 114.697 56.4308 113.993C56.8415 113.282 57.5601 112.926 58.5868 112.926C59.6061 112.926 60.3211 113.282 60.7318 113.993C61.1425 114.697 61.3478 115.68 61.3478 116.941C61.3478 118.224 61.1425 119.222 60.7318 119.933C60.3211 120.644 59.6061 121 58.5868 121C57.5601 121 56.8415 120.644 56.4308 119.933C56.0201 119.222 55.8148 118.224 55.8148 116.941ZM60.3578 116.941C60.3578 116.303 60.3138 115.764 60.2258 115.324C60.1451 114.877 59.9728 114.517 59.7088 114.246C59.4521 113.975 59.0781 113.839 58.5868 113.839C58.0881 113.839 57.7068 113.975 57.4428 114.246C57.1861 114.517 57.0138 114.877 56.9258 115.324C56.8451 115.764 56.8048 116.303 56.8048 116.941C56.8048 117.601 56.8451 118.155 56.9258 118.602C57.0138 119.049 57.1861 119.409 57.4428 119.68C57.7068 119.951 58.0881 120.087 58.5868 120.087C59.0781 120.087 59.4521 119.951 59.7088 119.68C59.9728 119.409 60.1451 119.049 60.2258 118.602C60.3138 118.155 60.3578 117.601 60.3578 116.941ZM63.101 120.197C64.0324 119.449 64.762 118.837 65.29 118.36C65.818 117.876 66.2617 117.374 66.621 116.853C66.9877 116.325 67.171 115.808 67.171 115.302C67.171 114.825 67.0537 114.451 66.819 114.18C66.5917 113.901 66.2214 113.762 65.708 113.762C65.2094 113.762 64.8207 113.92 64.542 114.235C64.2707 114.543 64.124 114.957 64.102 115.478H63.134C63.1634 114.657 63.4127 114.022 63.882 113.575C64.3514 113.128 64.9564 112.904 65.697 112.904C66.4524 112.904 67.05 113.113 67.49 113.531C67.9374 113.949 68.161 114.525 68.161 115.258C68.161 115.867 67.9777 116.461 67.611 117.04C67.2517 117.612 66.841 118.118 66.379 118.558C65.917 118.991 65.3267 119.497 64.608 120.076H68.392V120.912H63.101V120.197Z" fill="#737B8B"/>
<path d="M52 80H72V100H52V80Z" fill="#5A6ACF"/>
<path d="M52 0H72V80H52V0Z" fill="#E6E8EC"/>
<path opacity="0.5" d="M6.71667 115.941C6.71667 114.68 6.922 113.697 7.33267 112.993C7.74333 112.282 8.462 111.926 9.48867 111.926C10.508 111.926 11.223 112.282 11.6337 112.993C12.0443 113.697 12.2497 114.68 12.2497 115.941C12.2497 117.224 12.0443 118.222 11.6337 118.933C11.223 119.644 10.508 120 9.48867 120C8.462 120 7.74333 119.644 7.33267 118.933C6.922 118.222 6.71667 117.224 6.71667 115.941ZM11.2597 115.941C11.2597 115.303 11.2157 114.764 11.1277 114.324C11.047 113.877 10.8747 113.517 10.6107 113.246C10.354 112.975 9.98 112.839 9.48867 112.839C8.99 112.839 8.60867 112.975 8.34467 113.246C8.088 113.517 7.91567 113.877 7.82767 114.324C7.747 114.764 7.70667 115.303 7.70667 115.941C7.70667 116.601 7.747 117.155 7.82767 117.602C7.91567 118.049 8.088 118.409 8.34467 118.68C8.60867 118.951 8.99 119.087 9.48867 119.087C9.98 119.087 10.354 118.951 10.6107 118.68C10.8747 118.409 11.047 118.049 11.1277 117.602C11.2157 117.155 11.2597 116.601 11.2597 115.941ZM13.8599 112.96V112.047H15.9279V120H14.9159V112.96H13.8599Z" fill="#737B8B"/>
<path d="M2 60H22V100H2V60Z" fill="#5A6ACF"/>
<path d="M2 0H22V60H2V0Z" fill="#E6E8EC"/>
</svg>
